<?xml version="1.0" standalone="no"?>
<!DOCTYPE svg PUBLIC "-//W3C//DTD SVG 20010904//EN"
 "http://www.w3.org/TR/2001/REC-SVG-20010904/DTD/svg10.dtd">
<svg version="1.0" xmlns="http://www.w3.org/2000/svg"
 width="140.000000pt" height="140.000000pt" viewBox="0 0 140.000000 140.000000"
 preserveAspectRatio="xMidYMid meet">

<g transform="translate(0.000000,140.000000) scale(0.100000,-0.100000)"
fill="#000000" stroke="none">
<path d="M0 700 l0 -700 700 0 700 0 0 700 0 700 -700 0 -700 0 0 -700z m950
396 c0 -1 -5 -17 -11 -35 l-11 -31 -244 0 -244 0 0 -56 c0 -49 -2 -55 -15 -44
-8 7 -15 17 -15 23 0 6 -6 18 -14 26 -25 30 -27 67 -5 95 l20 26 270 0 c148 0
269 -2 269 -4z m50 -92 c0 -37 3 -43 23 -46 19 -3 22 -9 22 -43 0 -32 -5 -42
-22 -50 -19 -8 -23 -18 -23 -52 0 -36 3 -42 23 -45 19 -3 22 -9 22 -48 0 -39
-3 -45 -22 -48 -20 -3 -23 -9 -23 -47 0 -38 3 -44 26 -49 23 -6 25 -11 22 -49
-2 -35 -7 -43 -25 -45 -20 -3 -23 -9 -23 -45 0 -42 -22 -87 -42 -87 -6 0 -26
14 -45 30 -33 30 -34 30 -8 30 l25 0 0 290 c0 277 1 292 22 336 20 43 23 45
35 28 7 -10 13 -37 13 -60z m-610 -55 c0 -6 11 -25 25 -43 24 -32 24 -33 25
-271 l1 -239 -25 -19 c-26 -19 -26 -19 -36 8 -13 35 -14 575 0 575 6 0 10 -5
10 -11z m361 -62 c61 -41 70 -125 18 -176 -35 -35 -80 -45 -123 -27 -47 20
-76 61 -76 108 0 50 13 74 53 98 42 26 86 25 128 -3z m-79 -234 c21 -3 52 0
69 6 18 6 34 9 37 6 6 -5 -47 -68 -71 -84 -22 -14 -72 9 -82 38 -3 11 -12 22
-20 25 -25 9 -18 29 8 21 12 -4 39 -9 59 -12z m-102 -1 c0 -4 20 -28 44 -52
56 -56 48 -70 -40 -70 -54 0 -65 3 -74 21 -21 39 12 109 52 109 10 0 18 -4 18
-8z m289 -18 c23 -30 27 -74 9 -92 -18 -18 -142 -16 -158 3 -8 10 -9 15 -2 15
15 0 78 61 85 83 9 25 43 21 66 -9z m-7 -243 c24 -10 49 -26 57 -35 12 -15 -6
-16 -238 -16 -138 0 -251 2 -251 5 0 3 15 19 33 35 l32 29 162 1 c136 0 168
-3 205 -19z"/>
</g>
</svg>
